
            <svg id="trend-chart" width="660" height="400" title="Stack Overflow Trends Chart" version="1.1" xmlns="http://www.w3.org/2000/svg"><g></g><g class="chart-area" transform="translate(100, 20)"><g transform="translate(0,300)" fill="none" font-size="10" font-family="sans-serif" text-anchor="middle"><path class="domain" stroke="#000" d="M0.5,6V0.5H410.5V6"></path><g class="tick" opacity="1" transform="translate(14.4140625,0)"><line stroke="#000" y2="6" x1="0.5" x2="0.5"></line><text fill="#000" y="9" x="0.5" dy="0.71em" style="font-size: 12px;">2009</text></g><g class="tick" opacity="1" transform="translate(48.80055147058823,0)"><line stroke="#000" y2="6" x1="0.5" x2="0.5"></line><text fill="#000" y="9" x="0.5" dy="0.71em" style="font-size: 12px;">2010</text></g><g class="tick" opacity="1" transform="translate(83.18704044117646,0)"><line stroke="#000" y2="6" x1="0.5" x2="0.5"></line><text fill="#000" y="9" x="0.5" dy="0.71em" style="font-size: 12px;">2011</text></g><g class="tick" opacity="1" transform="translate(117.5735294117647,0)"><line stroke="#000" y2="6" x1="0.5" x2="0.5"></line><text fill="#000" y="9" x="0.5" dy="0.71em" style="font-size: 12px;">2012</text></g><g class="tick" opacity="1" transform="translate(152.05422794117646,0)"><line stroke="#000" y2="6" x1="0.5" x2="0.5"></line><text fill="#000" y="9" x="0.5" dy="0.71em" style="font-size: 12px;">2013</text></g><g class="tick" opacity="1" transform="translate(186.4407169117647,0)"><line stroke="#000" y2="6" x1="0.5" x2="0.5"></line><text fill="#000" y="9" x="0.5" dy="0.71em" style="font-size: 12px;">2014</text></g><g class="tick" opacity="1" transform="translate(220.82720588235293,0)"><line stroke="#000" y2="6" x1="0.5" x2="0.5"></line><text fill="#000" y="9" x="0.5" dy="0.71em" style="font-size: 12px;">2015</text></g><g class="tick" opacity="1" transform="translate(255.21369485294116,0)"><line stroke="#000" y2="6" x1="0.5" x2="0.5"></line><text fill="#000" y="9" x="0.5" dy="0.71em" style="font-size: 12px;">2016</text></g><g class="tick" opacity="1" transform="translate(289.6943933823529,0)"><line stroke="#000" y2="6" x1="0.5" x2="0.5"></line><text fill="#000" y="9" x="0.5" dy="0.71em" style="font-size: 12px;">2017</text></g><g class="tick" opacity="1" transform="translate(324.08088235294116,0)"><line stroke="#000" y2="6" x1="0.5" x2="0.5"></line><text fill="#000" y="9" x="0.5" dy="0.71em" style="font-size: 12px;">2018</text></g><g class="tick" opacity="1" transform="translate(358.4673713235294,0)"><line stroke="#000" y2="6" x1="0.5" x2="0.5"></line><text fill="#000" y="9" x="0.5" dy="0.71em" style="font-size: 12px;">2019</text></g><g class="tick" opacity="1" transform="translate(392.8538602941176,0)"><line stroke="#000" y2="6" x1="0.5" x2="0.5"></line><text fill="#000" y="9" x="0.5" dy="0.71em" style="font-size: 12px;">2020</text></g></g><g class="grid-lines" transform="translate(0,300)" fill="none" font-size="10" font-family="sans-serif" text-anchor="middle"><path class="domain" stroke="#000" d="M0.5,-300V0.5H410.5V-300"></path><g class="tick" opacity="1" transform="translate(14.4140625,0)"><line stroke="#000" y2="-300" x1="0.5" x2="0.5" style="stroke: #ccc; fill: none;"></line></g><g class="tick" opacity="1" transform="translate(48.80055147058823,0)"><line stroke="#000" y2="-300" x1="0.5" x2="0.5" style="stroke: #ccc; fill: none;"></line></g><g class="tick" opacity="1" transform="translate(83.18704044117646,0)"><line stroke="#000" y2="-300" x1="0.5" x2="0.5" style="stroke: #ccc; fill: none;"></line></g><g class="tick" opacity="1" transform="translate(117.5735294117647,0)"><line stroke="#000" y2="-300" x1="0.5" x2="0.5" style="stroke: #ccc; fill: none;"></line></g><g class="tick" opacity="1" transform="translate(152.05422794117646,0)"><line stroke="#000" y2="-300" x1="0.5" x2="0.5" style="stroke: #ccc; fill: none;"></line></g><g class="tick" opacity="1" transform="translate(186.4407169117647,0)"><line stroke="#000" y2="-300" x1="0.5" x2="0.5" style="stroke: #ccc; fill: none;"></line></g><g class="tick" opacity="1" transform="translate(220.82720588235293,0)"><line stroke="#000" y2="-300" x1="0.5" x2="0.5" style="stroke: #ccc; fill: none;"></line></g><g class="tick" opacity="1" transform="translate(255.21369485294116,0)"><line stroke="#000" y2="-300" x1="0.5" x2="0.5" style="stroke: #ccc; fill: none;"></line></g><g class="tick" opacity="1" transform="translate(289.6943933823529,0)"><line stroke="#000" y2="-300" x1="0.5" x2="0.5" style="stroke: #ccc; fill: none;"></line></g><g class="tick" opacity="1" transform="translate(324.08088235294116,0)"><line stroke="#000" y2="-300" x1="0.5" x2="0.5" style="stroke: #ccc; fill: none;"></line></g><g class="tick" opacity="1" transform="translate(358.4673713235294,0)"><line stroke="#000" y2="-300" x1="0.5" x2="0.5" style="stroke: #ccc; fill: none;"></line></g><g class="tick" opacity="1" transform="translate(392.8538602941176,0)"><line stroke="#000" y2="-300" x1="0.5" x2="0.5" style="stroke: #ccc; fill: none;"></line></g></g><text x="205" y="360" class="axis-label x-axis-label" style="text-anchor: middle; font-weight: bold;">Year</text><g fill="none" font-size="10" font-family="sans-serif" text-anchor="end"><path class="domain" stroke="#000" d="M-6,300.5H0.5V0.5H-6"></path><g class="tick" opacity="1" transform="translate(0,300)"><line stroke="#000" x2="-6" y1="0.5" y2="0.5"></line><text fill="#000" x="-9" y="0.5" dy="0.32em" style="font-size: 12px;">0.00%</text></g><g class="tick" opacity="1" transform="translate(0,262.5)"><line stroke="#000" x2="-6" y1="0.5" y2="0.5"></line><text fill="#000" x="-9" y="0.5" dy="0.32em" style="font-size: 12px;">2.00%</text></g><g class="tick" opacity="1" transform="translate(0,225)"><line stroke="#000" x2="-6" y1="0.5" y2="0.5"></line><text fill="#000" x="-9" y="0.5" dy="0.32em" style="font-size: 12px;">4.00%</text></g><g class="tick" opacity="1" transform="translate(0,187.5)"><line stroke="#000" x2="-6" y1="0.5" y2="0.5"></line><text fill="#000" x="-9" y="0.5" dy="0.32em" style="font-size: 12px;">6.00%</text></g><g class="tick" opacity="1" transform="translate(0,150)"><line stroke="#000" x2="-6" y1="0.5" y2="0.5"></line><text fill="#000" x="-9" y="0.5" dy="0.32em" style="font-size: 12px;">8.00%</text></g><g class="tick" opacity="1" transform="translate(0,112.5)"><line stroke="#000" x2="-6" y1="0.5" y2="0.5"></line><text fill="#000" x="-9" y="0.5" dy="0.32em" style="font-size: 12px;">10.00%</text></g><g class="tick" opacity="1" transform="translate(0,75)"><line stroke="#000" x2="-6" y1="0.5" y2="0.5"></line><text fill="#000" x="-9" y="0.5" dy="0.32em" style="font-size: 12px;">12.00%</text></g><g class="tick" opacity="1" transform="translate(0,37.49999999999994)"><line stroke="#000" x2="-6" y1="0.5" y2="0.5"></line><text fill="#000" x="-9" y="0.5" dy="0.32em" style="font-size: 12px;">14.00%</text></g><g class="tick" opacity="1" transform="translate(0,0)"><line stroke="#000" x2="-6" y1="0.5" y2="0.5"></line><text fill="#000" x="-9" y="0.5" dy="0.32em" style="font-size: 12px;">16.00%</text></g></g><g class="grid-lines" fill="none" font-size="10" font-family="sans-serif" text-anchor="end"><path class="domain" stroke="#000" d="M410,300.5H0.5V0.5H410"></path><g class="tick" opacity="1" transform="translate(0,300)"><line stroke="#000" x2="410" y1="0.5" y2="0.5" style="stroke: #ccc; fill: none;"></line></g><g class="tick" opacity="1" transform="translate(0,262.5)"><line stroke="#000" x2="410" y1="0.5" y2="0.5" style="stroke: #ccc; fill: none;"></line></g><g class="tick" opacity="1" transform="translate(0,225)"><line stroke="#000" x2="410" y1="0.5" y2="0.5" style="stroke: #ccc; fill: none;"></line></g><g class="tick" opacity="1" transform="translate(0,187.5)"><line stroke="#000" x2="410" y1="0.5" y2="0.5" style="stroke: #ccc; fill: none;"></line></g><g class="tick" opacity="1" transform="translate(0,150)"><line stroke="#000" x2="410" y1="0.5" y2="0.5" style="stroke: #ccc; fill: none;"></line></g><g class="tick" opacity="1" transform="translate(0,112.5)"><line stroke="#000" x2="410" y1="0.5" y2="0.5" style="stroke: #ccc; fill: none;"></line></g><g class="tick" opacity="1" transform="translate(0,75)"><line stroke="#000" x2="410" y1="0.5" y2="0.5" style="stroke: #ccc; fill: none;"></line></g><g class="tick" opacity="1" transform="translate(0,37.49999999999994)"><line stroke="#000" x2="410" y1="0.5" y2="0.5" style="stroke: #ccc; fill: none;"></line></g><g class="tick" opacity="1" transform="translate(0,0)"><line stroke="#000" x2="410" y1="0.5" y2="0.5" style="stroke: #ccc; fill: none;"></line></g></g><g class="lines"><path class="line" d="M2.9204963235294117,226.94104960460626L5.746783088235294,233.79603987815625L8.667279411764707,232.53999840802499L11.493566176470589,230.9152811429625L14.4140625,224.804563365975L17.334558823529413,232.2211383979875L19.972426470588236,229.25749654764377L22.89292279411765,231.88268684958751L25.71920955882353,226.71654929578125L28.639705882352942,230.07476535455626L31.465992647058826,232.18532121515625L34.38648897058823,234.16489410894377L37.306985294117645,233.197359978L40.13327205882353,226.05325969305L43.05376838235294,223.36606019296875L45.880055147058826,220.4566691584875L48.80055147058823,218.100067234425L51.72104779411765,221.36049987639376L54.358915441176464,225.13585385595002L57.279411764705884,231.51235995736874L60.10569852941177,227.02867543130625L63.026194852941174,225.2369133574125L65.85248161764706,219.49888365170625L68.77297794117646,226.14892608971252L71.69347426470588,230.6000690301375L74.51976102941177,221.04516657736875L77.44025735294117,229.34790452000624L80.26654411764706,232.693141420275L83.18704044117646,231.53427290199375L86.10753676470588,231.475009690875L88.74540441176471,230.0360606814375L91.66590073529412,234.16705993393123L94.4921875,234.00341788093127L97.4126838235294,234.112397613525L100.23897058823529,231.54767830831875L103.1594669117647,232.8192443522625L106.07996323529412,235.19954076676873L108.90625,232.774530230175L111.82674632352942,233.2079918409375L114.6530330882353,234.40818472044373L117.5735294117647,231.980845254825L120.49402573529412,231.87160721210626L123.22610294117646,229.10619608195626L126.14659926470588,228.24497967039375L128.97288602941177,228.66779560089375L131.8933823529412,224.1582382103625L134.71966911764707,224.03692748630624L137.64016544117646,221.93703913785L140.56066176470588,225.18376914500624L143.38694852941177,222.94726905103124L146.3074448529412,218.60979478940624L149.13373161764707,219.87476465094375L152.05422794117646,221.40440039947498L154.97472426470588,217.20190233380626L157.6125919117647,217.33057684550624L160.53308823529412,212.97237842720625L163.359375,211.7927670069L166.27987132352942,209.73990685683748L169.1061580882353,208.30782202254375L172.0266544117647,212.28720935015625L174.94715073529412,209.62288000096873L177.7734375,203.1965537620875L180.69393382352942,198.87826594245L183.5202205882353,203.87111575312497L186.4407169117647,202.16554799195626L189.36121323529412,200.96020471612502L191.99908088235293,196.70999538853124L194.91957720588235,196.0400800061625L197.74586397058823,201.29959250666252L200.66636029411765,196.98510191810624L203.49264705882354,194.64974790864375L206.41314338235293,195.2328464300625L209.33363970588238,200.708766760875L212.15992647058823,195.69789011981248L215.08042279411762,191.8905138387375L217.90670955882354,190.50408167205L220.82720588235293,190.04549426049374L223.74770220588238,185.80142173323748L226.38556985294116,184.6609145041125L229.3060661764706,186.18831237451874L232.13235294117646,186.04166554126874L235.05284926470586,181.43380880415L237.87913602941177,180.993326488725L240.79963235294116,183.231918130275L243.7201286764706,183.563383859775L246.54641544117646,173.4487856900625L249.46691176470586,169.65698205050626L252.29319852941177,172.468875683175L255.21369485294116,171.2295536457L258.1341911764706,167.058803132475L260.8662683823529,168.0685692071625L263.7867647058824,168.67279377958124L266.61305147058823,169.02683281501876L269.5335477941176,167.48075695668751L272.35983455882354,162.86624439226875L275.2803308823529,165.59229107825624L278.2008272058824,163.80038725576875L281.02711397058823,154.22252010725626L283.9476102941176,146.74621138138124L286.77389705882354,147.81482469584998L289.6943933823529,147.06628729621875L292.6148897058824,140.3452755249375L295.25275735294116,139.18802458035L298.1732536764706,134.22939068101874L300.99954044117646,135.95975783476874L303.92003676470586,129.8226445777125L306.74632352941177,121.8925881331875L309.66681985294116,124.36932362902499L312.5873161764706,119.74578638608125L315.41360294117646,111.32068494206248L318.33409926470586,109.74635825482503L321.16038602941177,105.25077013603124L324.08088235294116,108.08736291675001L327.0013786764706,97.92139264228123L329.6392463235294,103.7924006405625L332.55974264705884,102.106832097975L335.3860294117647,101.2786028983125L338.30652573529414,93.65074184557497L341.1328125,87.03031259868752L344.0533088235294,87.11618731775624L346.97380514705884,88.9816782193875L349.8000919117647,84.77311161219376L352.72058823529414,71.07682404298126L355.546875,73.27747271527502L358.4673713235294,83.5456893247125L361.38786764705884,71.78810990248127L364.0257352941176,64.7004293824875L366.9462316176471,54.24346643478751L369.7725183823529,62.22623381274374L372.6930147058824,58.021277066174974L375.51930147058823,50.86299516524997L378.4397977941176,54.178393702087504L381.3602941176471,72.45617305798126L384.1865808823529,53.510395658606285L387.1070772058824,44.98244612778751L389.93336397058823,49.64959805401875L392.8538602941176,48.04455137881877L395.7743566176471,46.006453441349976L398.5064338235294,31.706139786337474L401.42693014705884,23.126556486318748L404.2532169117647,11.523669166781247L407.17371323529414,10.663458882712519L410,10.842209399006265" data-legend="python" style="stroke: rgb(31, 119, 180); fill: none;"></path><path class="line" d="M2.9204963235294117,146.73795830338125L5.746783088235294,150.32712545002502L8.667279411764707,157.0206160948875L11.493566176470589,169.6632968502L14.4140625,162.9560188127625L17.334558823529413,170.03672251550626L19.972426470588236,166.83764056027502L22.89292279411765,163.94276253549376L25.71920955882353,166.56396713615626L28.639705882352942,158.47667820564374L31.465992647058826,167.93062126494374L34.38648897058823,173.2428558217125L37.306985294117645,170.2905857548875L40.13327205882353,169.64350142932503L43.05376838235294,164.18244022651876L45.880055147058826,165.34200128150624L48.80055147058823,143.34379202152502L51.72104779411765,149.04250297813124L54.358915441176464,139.2877789339875L57.279411764705884,153.33236116419374L60.10569852941177,148.35760063509375L63.026194852941174,154.772111913375L65.85248161764706,159.774249565875L68.77297794117646,160.44101389768127L71.69347426470588,154.4512104925875L74.51976102941177,151.2800611466625L77.44025735294117,148.38617733650622L80.26654411764706,146.03962542271876L83.18704044117646,145.82846591551873L86.10753676470588,143.82570985561873L88.74540441176471,141.79308629694376L91.66590073529412,144.56111373290628L94.4921875,139.29963422679376L97.4126838235294,149.71938517545L100.23897058823529,147.45231173589377L103.1594669117647,147.54260328495L106.07996323529412,146.40708867716253L108.90625,141.20273913088124L111.82674632352942,133.47651512368122L114.6530330882353,133.08176039970002L117.5735294117647,135.8626094895375L120.49402573529412,133.6473681659625L123.22610294117646,125.53861879942502L126.14659926470588,124.39515503276252L128.97288602941177,129.4921656928125L131.8933823529412,140.16854362396873L134.71966911764707,137.5112949681L137.64016544117646,136.81491066365624L140.56066176470588,134.50820418288748L143.38694852941177,130.3157764357875L146.3074448529412,126.72008786024998L149.13373161764707,126.94894963901251L152.05422794117646,135.9749193769125L154.97472426470588,131.37625024515L157.6125919117647,127.43257649975627L160.53308823529412,121.79277993065625L163.359375,127.11832370255627L166.27987132352942,134.08872613760624L169.1061580882353,138.05858453251875L172.0266544117647,133.38866722687501L174.94715073529412,115.26369137761873L177.7734375,108.70085613746252L180.69393382352942,99.85925225281875L183.5202205882353,101.49362763151876L186.4407169117647,113.87156662066877L189.36121323529412,106.90279172846252L191.99908088235293,100.85060237491876L194.91957720588235,97.86906685130626L197.74586397058823,108.0536532910875L200.66636029411765,115.72597469536876L203.49264705882354,115.5155902318125L206.41314338235293,118.65549964582499L209.33363970588238,110.35791594011249L212.15992647058823,104.85341793660001L215.08042279411762,98.04266193180001L217.90670955882354,101.34415346315623L220.82720588235293,112.00852640776876L223.74770220588238,112.14724583840626L226.38556985294116,103.52863236133123L229.3060661764706,102.94964598965623L232.13235294117646,111.55498954715625L235.05284926470586,120.5736356694L237.87913602941177,119.42055954826876L240.79963235294116,122.22375881621252L243.7201286764706,120.02074688797501L246.54641544117646,112.1273449997625L249.46691176470586,111.58942635975001L252.29319852941177,118.73250257551877L255.21369485294116,126.48322705850623L258.1341911764706,120.9579848071125L260.8662683823529,113.36346962780624L263.7867647058824,112.71265236894376L266.61305147058823,129.81050916541875L269.5335477941176,136.70347984050002L272.35983455882354,140.17941924003753L275.2803308823529,141.8964944343L278.2008272058824,137.9906706565875L281.02711397058823,134.36285456769374L283.9476102941176,130.94474189139373L286.77389705882354,138.43848688089372L289.6943933823529,143.84078403226874L292.6148897058824,142.50073285550624L295.25275735294116,137.31452338130626L298.1732536764706,131.05937647935002L300.99954044117646,134.1184278684375L303.92003676470586,144.81400548838124L306.74632352941177,150.978635230875L309.66681985294116,153.39646242605625L312.5873161764706,150.99869634044998L315.41360294117646,144.059713503L318.33409926470586,140.95653131960626L321.16038602941177,143.94361565885626L324.08088235294116,154.13227161161248L327.0013786764706,150.99615346681875L329.6392463235294,151.3102343863875L332.55974264705884,142.53374525893128L335.3860294117647,147.6540664651125L338.30652573529414,155.01700402745627L341.1328125,159.9936848752875L344.0533088235294,163.95019726685626L346.97380514705884,157.8320387335125L349.8000919117647,151.20725291244378L352.72058823529414,150.54867132024373L355.546875,148.837408006575L358.4673713235294,158.81605229709376L361.38786764705884,156.4191506289375L364.0257352941176,156.80110056525L366.9462316176471,160.82868557156252L369.7725183823529,159.54874579779374L372.6930147058824,164.75668086613123L375.51930147058823,162.87827540240627L378.4397977941176,173.16956273454375L381.3602941176471,165.72271796557501L384.1865808823529,161.40292235700002L387.1070772058824,168.5080938051375L389.93336397058823,170.70899890734376L392.8538602941176,172.06349770051875L395.7743566176471,171.53636776940624L398.5064338235294,166.70782919295002L401.42693014705884,169.44192891103125L404.2532169117647,176.93582837625002L407.17371323529414,181.625139916575L410,182.36073367914375" data-legend="java" style="stroke: rgb(255, 127, 14); fill: none;"></path><path class="line" d="M2.9204963235294117,213.86592379584374L5.746783088235294,205.88652727777497L8.667279411764707,213.58552893418124L11.493566176470589,201.77750856380624L14.4140625,205.6184059997625L17.334558823529413,198.0089511131625L19.972426470588236,207.06376997435626L22.89292279411765,206.87086092716248L25.71920955882353,194.80633802818124L28.639705882352942,195.81474608330626L31.465992647058826,197.8694596613625L34.38648897058823,192.60612226025626L37.306985294117645,199.45228710240002L40.13327205882353,193.6332602481375L43.05376838235294,190.52996539430626L45.880055147058826,184.76479068774375L48.80055147058823,189.9036306589125L51.72104779411765,188.74154323348125L54.358915441176464,192.11180483293126L57.279411764705884,186.74648510570626L60.10569852941177,182.88283927430626L63.026194852941174,182.59250902528126L65.85248161764706,179.86851897793127L68.77297794117646,181.524399873675L71.69347426470588,176.76273359302502L74.51976102941177,178.28781479497502L77.44025735294117,177.0150233793375L80.26654411764706,165.92820601753124L83.18704044117646,172.15962618232498L86.10753676470588,173.05728510515624L88.74540441176471,173.76274558569375L91.66590073529412,164.69639767186877L94.4921875,163.00368771361875L97.4126838235294,154.13717261604376L100.23897058823529,148.5536716976625L103.1594669117647,143.9689724760375L106.07996323529412,149.00131489860001L108.90625,151.05235353945L111.82674632352942,150.25634900218125L114.6530330882353,148.99595875813125L117.5735294117647,144.71220512115L120.49402573529412,148.50596161303127L123.22610294117646,149.50687455069377L126.14659926470588,144.29800738695L128.97288602941177,138.92683017605623L131.8933823529412,138.40411451480625L134.71966911764707,136.86271672220624L137.64016544117646,134.515031196825L140.56066176470588,141.0937393323L143.38694852941177,143.98642224931874L146.3074448529412,142.92694583986875L149.13373161764707,136.67794612546876L152.05422794117646,135.34281516161252L154.97472426470588,132.43037850560626L157.6125919117647,134.110096236975L160.53308823529412,131.56085195653125L163.359375,129.98730895935L166.27987132352942,126.30441513798749L169.1061580882353,120.76417929029998L172.0266544117647,113.87612455121251L174.94715073529412,98.6792805729375L177.7734375,98.43289975222498L180.69393382352942,102.60978041086875L183.5202205882353,94.98466526199374L186.4407169117647,89.73278748354372L189.36121323529412,88.0793514134063L191.99908088235293,94.7620042656375L194.91957720588235,92.55135010385624L197.74586397058823,88.57037749732501L200.66636029411765,87.9876544725L203.49264705882354,86.01456214968752L206.41314338235293,87.22535357484375L209.33363970588238,94.41630088389377L212.15992647058823,93.94211265408748L215.08042279411762,96.77171187600001L217.90670955882354,93.96240616014379L220.82720588235293,89.61540779128126L223.74770220588238,90.72524469530626L226.38556985294116,95.8479380899125L229.3060661764706,92.05193913136875L232.13235294117646,74.737058184825L235.05284926470586,72.74062364823749L237.87913602941177,68.26232032854375L240.79963235294116,69.60655510995L243.7201286764706,72.56753323736251L246.54641544117646,78.91156462586247L249.46691176470586,74.62774228443752L252.29319852941177,69.12130189569376L255.21369485294116,65.2689215414625L258.1341911764706,74.55709606522501L260.8662683823529,74.24567891390629L263.7867647058824,74.80880444668125L266.61305147058823,70.45365289291874L269.5335477941176,72.80662037062501L272.35983455882354,62.84378500396872L275.2803308823529,64.02849310516876L278.2008272058824,74.56653758141252L281.02711397058823,79.43392597781249L283.9476102941176,78.5101451107125L286.77389705882354,69.09313984006877L289.6943933823529,70.8183806692125L292.6148897058824,71.21975893366874L295.25275735294116,77.4374250599625L298.1732536764706,75.03465882195005L300.99954044117646,73.00043706294375L303.92003676470586,70.95826134093753L306.74632352941177,72.51981071319375L309.66681985294116,72.2927858678625L312.5873161764706,78.36623521743752L315.41360294117646,78.92557704710626L318.33409926470586,82.73476303346251L321.16038602941177,79.05749195251875L324.08088235294116,76.49622412918126L327.0013786764706,87.04753920506249L329.6392463235294,90.29698646092501L332.55974264705884,90.80031111331877L335.3860294117647,95.8239918736875L338.30652573529414,89.08560108095625L341.1328125,88.49857909694998L344.0533088235294,85.86540110926876L346.97380514705884,89.7523424710125L349.8000919117647,93.83925216084376L352.72058823529414,94.68829836455629L355.546875,94.56697577981251L358.4673713235294,96.06763109578125L361.38786764705884,96.01617261766876L364.0257352941176,95.3500183843125L366.9462316176471,99.57957643798125L369.7725183823529,97.18674782679375L372.6930147058824,92.47122031751252L375.51930147058823,95.97749746325627L378.4397977941176,91.95984255181872L381.3602941176471,100.37333476580628L384.1865808823529,106.31379664845002L387.1070772058824,103.37285116393124L389.93336397058823,99.56358291275623L392.8538602941176,99.37230321217498L395.7743566176471,101.27105634509999L398.5064338235294,93.96278478570002L401.42693014705884,90.76579126104374L404.2532169117647,89.15467898581875L407.17371323529414,87.62665174224375L410,80.1806487994875" data-legend="javascript" style="stroke: rgb(44, 160, 44); fill: none;"></path><path class="line" d="M2.9204963235294117,77.72286125090625L5.746783088235294,41.80455552479998L8.667279411764707,41.80132134044999L11.493566176470589,49.82245801655628L14.4140625,16.61688064066874L17.334558823529413,20.385299518031275L19.972426470588236,7.597652396925014L22.89292279411765,5.534531693475003L25.71920955882353,38.84976525823129L28.639705882352942,40.03872095928756L31.465992647058826,42.57267803786249L34.38648897058823,42.20845278832502L37.306985294117645,50.4354202951875L40.13327205882353,54.17002026033748L43.05376838235294,69.85240142617499L45.880055147058826,75.186218496375L48.80055147058823,85.01792917974376L51.72104779411765,84.85817356319998L54.358915441176464,81.80280957337501L57.279411764705884,81.78993100951877L60.10569852941177,84.38970317735624L63.026194852941174,91.75315884478127L65.85248161764706,92.63830315059377L68.77297794117646,93.75592229943749L71.69347426470588,102.61698141118126L74.51976102941177,100.6922337441375L77.44025735294117,101.81694856550627L80.26654411764706,107.15663747508748L83.18704044117646,111.72513848589375L86.10753676470588,113.00422763835002L88.74540441176471,113.51653817460002L91.66590073529412,117.32735567092499L94.4921875,111.90411944594999L97.4126838235294,114.54772980080625L100.23897058823529,120.42232487754379L103.1594669117647,123.24541734403124L106.07996323529412,128.4498915699375L108.90625,128.9277497457375L111.82674632352942,128.99729868795L114.6530330882353,131.09248560489377L117.5735294117647,130.80800468535L120.49402573529412,136.72208220241876L123.22610294117646,136.82770938174374L126.14659926470588,137.75101648096876L128.97288602941177,138.01965089881875L131.8933823529412,137.2995532025625L134.71966911764707,136.55828203535629L137.64016544117646,140.82972915485627L140.56066176470588,139.4153524043625L143.38694852941177,140.057209999875L146.3074448529412,144.3251845675125L149.13373161764707,147.58832075668127L152.05422794117646,147.29316277916251L154.97472426470588,146.2198470288375L157.6125919117647,145.57425229068753L160.53308823529412,147.4476268174125L163.359375,147.6737592482625L166.27987132352942,147.92750124802498L169.1061580882353,148.85963026048125L172.0266544117647,146.8634496618375L174.94715073529412,143.7829953603L177.7734375,144.98435746316252L180.69393382352942,144.37745317378125L183.5202205882353,145.1546152128L186.4407169117647,147.33263515336873L189.36121323529412,148.81459160409375L191.99908088235293,153.50436649758748L194.91957720588235,151.8924532656375L197.74586397058823,151.51961061748125L200.66636029411765,155.049731859075L203.49264705882354,154.51229473565624L206.41314338235293,155.98237621828127L209.33363970588238,160.1219108893125L212.15992647058823,163.039822471875L215.08042279411762,165.66170383790626L217.90670955882354,165.30723507729377L220.82720588235293,166.4208671025375L223.74770220588238,167.694863184975L226.38556985294116,168.141483139425L229.3060661764706,169.7030539998L232.13235294117646,163.97116418266873L235.05284926470586,163.88068548969378L237.87913602941177,163.52348562630002L240.79963235294116,162.16636703084998L243.7201286764706,162.837666186825L246.54641544117646,170.3079806744625L249.46691176470586,168.695703613575L252.29319852941177,166.85951423368124L255.21369485294116,171.00083171611877L258.1341911764706,172.08998378287498L260.8662683823529,172.21770897710627L263.7867647058824,168.0788997762375L266.61305147058823,165.14599895981252L269.5335477941176,165.78284136969376L272.35983455882354,171.4164482325375L275.2803308823529,167.3679182588625L278.2008272058824,177.22232001408747L281.02711397058823,176.24575896573748L283.9476102941176,173.997552764925L286.77389705882354,175.07135013061873L289.6943933823529,174.4723845654375L292.6148897058824,175.53311644644373L295.25275735294116,177.7821492805875L298.1732536764706,182.3079394062375L300.99954044117646,178.12823750324998L303.92003676470586,179.8361960904L306.74632352941177,181.82874583486876L309.66681985294116,182.859699680625L312.5873161764706,184.38169289506874L315.41360294117646,185.918186820675L318.33409926470586,189.95482806675003L321.16038602941177,187.6207123325625L324.08088235294116,188.7130338165L327.0013786764706,193.5669198145875L329.6392463235294,192.3860823991875L332.55974264705884,192.01284736856252L335.3860294117647,187.3126949685375L338.30652573529414,191.78290981012498L341.1328125,187.997316072L344.0533088235294,185.91638553759375L346.97380514705884,189.79501201713748L349.8000919117647,189.33906426155625L352.72058823529414,192.15163645874998L355.546875,191.06040237873748L358.4673713235294,187.93303472349373L361.38786764705884,191.10231684065624L364.0257352941176,193.87740475998748L366.9462316176471,186.59842684434375L369.7725183823529,186.07994668895626L372.6930147058824,193.04349748685627L375.51930147058823,193.2074570740875L378.4397977941176,195.46367678251875L381.3602941176471,195.72537222883125L384.1865808823529,200.2918424556375L387.1070772058824,201.59454878767502L389.93336397058823,202.68419272595625L392.8538602941176,203.79237175276876L395.7743566176471,203.8958297661375L398.5064338235294,209.9485937701125L401.42693014705884,214.727190400725L404.2532169117647,216.97620597704997L407.17371323529414,217.621854603075L410,214.9927322401875" data-legend="c#" style="stroke: rgb(214, 39, 40); fill: none;"></path><path class="line" d="M2.9204963235294117,198.22969086988127L5.746783088235294,194.72272223761874L8.667279411764707,190.30287351748126L11.493566176470589,200.83758041608124L14.4140625,198.349116562875L17.334558823529413,209.09025705761252L19.972426470588236,202.34760307753126L22.89292279411765,209.53169347209376L25.71920955882353,210.6514084507125L28.639705882352942,216.15663252560626L31.465992647058826,214.32706673308127L34.38648897058823,219.02108573015624L37.306985294117645,216.06700889175L40.13327205882353,212.10693569428125L43.05376838235294,213.584049916125L45.880055147058826,217.00261640325L48.80055147058823,215.87292693860627L51.72104779411765,204.03958103887499L54.358915441176464,211.83951901955623L57.279411764705884,206.09348914858126L60.10569852941177,212.03506496021248L63.026194852941174,204.2870036101125L65.85248161764706,216.58397419996876L68.77297794117646,221.88487049906252L71.69347426470588,215.43809476850623L74.51976102941177,213.30333785105626L77.44025735294117,208.7015817121875L80.26654411764706,214.9451573745L83.18704044117646,217.54437200889373L86.10753676470588,221.6630124043125L88.74540441176471,221.97836359115627L91.66590073529412,217.98411200251874L94.4921875,227.12643161240624L97.4126838235294,227.627919911025L100.23897058823529,228.07559436105L103.1594669117647,230.717108582325L106.07996323529412,227.34326703236252L108.90625,219.33313913878123L111.82674632352942,222.6473777059125L114.6530330882353,221.04387496263752L117.5735294117647,226.47407133076877L120.49402573529412,222.52629410625002L123.22610294117646,226.34008806615L126.14659926470588,222.65821409728125L128.97288602941177,230.3286315084375L131.8933823529412,233.10948832513125L134.71966911764707,229.99325831593126L137.64016544117646,231.30938031765L140.56066176470588,230.06247013040627L143.38694852941177,225.7090156800375L146.3074448529412,220.17327991215L149.13373161764707,220.889359998825L152.05422794117646,227.78507502560626L154.97472426470588,225.4633261423875L157.6125919117647,222.20365354695002L160.53308823529412,221.63689869178125L163.359375,222.7399146730125L166.27987132352942,226.42226589406874L169.1061580882353,230.04784431781874L172.0266544117647,230.95138060513125L174.94715073529412,225.55115449824376L177.7734375,218.61882092685L180.69393382352942,213.29995412248124L183.5202205882353,220.35294046621874L186.4407169117647,223.4679709938L189.36121323529412,223.20155928637502L191.99908088235293,221.63181634771877L194.91957720588235,221.513193322575L197.74586397058823,227.55320052069374L200.66636029411765,234.30700602551252L203.49264705882354,233.36126524520625L206.41314338235293,232.26202398691876L209.33363970588238,229.63817569599377L212.15992647058823,225.47372618368126L215.08042279411762,225.8125082480625L217.90670955882354,226.266958720125L220.82720588235293,230.26724111958748L223.74770220588238,227.49562406231252L226.38556985294116,226.65728794950002L229.3060661764706,229.02620733384376L232.13235294117646,230.6891047283625L235.05284926470586,234.57381190155002L237.87913602941177,235.24127310061874L240.79963235294116,238.87774858250626L243.7201286764706,237.25124904735L246.54641544117646,228.640102121625L249.46691176470586,224.9252104249125L252.29319852941177,228.20235607732502L255.21369485294116,236.39451067370624L258.1341911764706,234.21456235065L260.8662683823529,234.08100915054376L263.7867647058824,233.74250288645624L266.61305147058823,238.742530224075L269.5335477941176,241.28894295549375L272.35983455882354,241.45988866966874L275.2803308823529,247.8007144044L278.2008272058824,243.23182538285624L281.02711397058823,235.469542054425L283.9476102941176,234.19824327585002L286.77389705882354,238.87930660081875L289.6943933823529,239.4417102430125L292.6148897058824,243.9904412652375L295.25275735294116,241.4999250599625L298.1732536764706,237.6669540813L300.99954044117646,246.21697746699377L303.92003676470586,250.2193651116375L306.74632352941177,247.0675944334125L309.66681985294116,248.84884189269374L312.5873161764706,247.772138932875L315.41360294117646,241.87740744466873L318.33409926470586,243.57602701383752L321.16038602941177,241.9412619847125L324.08088235294116,243.78566361793125L327.0013786764706,243.3992504191875L329.6392463235294,243.08123453195626L332.55974264705884,245.547423089325L335.3860294117647,246.9640506572625L338.30652573529414,249.5509109067375L341.1328125,253.44174297442498L344.0533088235294,252.9942630606L346.97380514705884,250.55992894215L349.8000919117647,248.73872604285L352.72058823529414,244.42879845508125L355.546875,248.4494975962125L358.4673713235294,250.126606541175L361.38786764705884,251.14521748674375L364.0257352941176,247.33599022828125L366.9462316176471,245.18719636985625L369.7725183823529,247.8327465139125L372.6930147058824,248.56691184058124L375.51930147058823,246.1436302501125L378.4397977941176,256.11284467288124L381.3602941176471,251.06202128467498L384.1865808823529,244.20514361795625L387.1070772058824,244.1605271350125L389.93336397058823,243.95194859255625L392.8538602941176,249.8264289646125L395.7743566176471,251.03458761151876L398.5064338235294,248.62393808728126L401.42693014705884,242.08172968078125L404.2532169117647,240.9385618350375L407.17371323529414,244.02429096830625L410,246.86817887926875" data-legend="c++" style="stroke: rgb(148, 103, 189); fill: none;"></path><path class="line" d="M2.9204963235294117,235.02875629044377L5.746783088235294,219.90618942121876L8.667279411764707,224.7791132691375L11.493566176470589,224.64909349153123L14.4140625,224.20871996949376L17.334558823529413,217.26675464769374L19.972426470588236,216.40362990729375L22.89292279411765,214.1438032166625L25.71920955882353,213.21889671361873L28.639705882352942,194.27572178009999L31.465992647058826,181.23677166335625L34.38648897058823,173.64746138908126L37.306985294117645,170.06141717848126L40.13327205882353,176.98093308539998L43.05376838235294,167.7708158557125L45.880055147058826,158.3337782998875L48.80055147058823,155.44598834604375L51.72104779411765,166.4055651705L54.358915441176464,164.25453809690623L57.279411764705884,162.30816420943125L60.10569852941177,154.89234611885624L63.026194852941174,161.27030685920624L65.85248161764706,157.04539816423124L68.77297794117646,147.56001263424375L71.69347426470588,155.067550909725L74.51976102941177,166.35003309485623L77.44025735294117,161.32057091728126L80.26654411764706,153.68074221798753L83.18704044117646,148.23077212948124L86.10753676470588,147.30079222794373L88.74540441176471,148.3772693359875L91.66590073529412,149.0443605474375L94.4921875,147.8255981291625L97.4126838235294,147.02699969664374L100.23897058823529,137.07339413008125L103.1594669117647,142.7777622064125L106.07996323529412,150.84119165139373L108.90625,149.9970377099625L111.82674632352942,149.75674409203125L114.6530330882353,148.43534495231248L117.5735294117647,148.8140249941875L120.49402573529412,148.74830360606248L123.22610294117646,146.43186107118748L126.14659926470588,147.6733449207L128.97288602941177,146.72857196026877L131.8933823529412,147.51315910275L134.71966911764707,143.79853306603124L137.64016544117646,141.22855218378749L140.56066176470588,143.113493093025L143.38694852941177,151.34271099744376L146.3074448529412,149.53680164332502L149.13373161764707,145.35065156480624L152.05422794117646,145.695012498975L154.97472426470588,144.945087272025L157.6125919117647,146.11450469660628L160.53308823529412,152.04758019871875L163.359375,151.11654155641875L166.27987132352942,147.92750124802498L169.1061580882353,146.5148059914375L172.0266544117647,140.68245788259375L174.94715073529412,137.26688306596873L177.7734375,142.5851122087875L180.69393382352942,140.2038718374375L183.5202205882353,134.96667411268123L186.4407169117647,131.5839164722875L189.36121323529412,133.1998054878L191.99908088235293,132.77070843901873L194.91957720588235,127.79444572661248L197.74586397058823,140.99269907748752L200.66636029411765,147.97421674623752L203.49264705882354,147.1608033124125L206.41314338235293,146.8796563179375L209.33363970588238,147.56253382239373L212.15992647058823,150.6657304831875L215.08042279411762,151.70374791549378L217.90670955882354,149.07221568211875L220.82720588235293,144.38929227804374L223.74770220588238,147.8803493605875L226.38556985294116,150.91930784011873L229.3060661764706,150.15653069851876L232.13235294117646,151.05703419999372L235.05284926470586,154.8688138507875L237.87913602941177,150.55826488708124L240.79963235294116,151.01645692160625L243.7201286764706,155.787958336875L246.54641544117646,158.3810008564125L249.46691176470586,158.1216408072375L252.29319852941177,148.54724086351874L255.21369485294116,147.33850845579374L258.1341911764706,149.66472132127498L260.8662683823529,157.4807868663L263.7867647058824,160.4157513461625L266.61305147058823,155.19514292083124L269.5335477941176,159.35940167910002L272.35983455882354,161.35236790185L275.2803308823529,165.47806944676876L278.2008272058824,165.56064073228126L281.02711397058823,167.0424993254625L283.9476102941176,170.43225869458126L286.77389705882354,165.83461039726873L289.6943933823529,164.48614101645L292.6148897058824,164.28162918088125L295.25275735294116,167.3654826139125L298.1732536764706,167.89494150268126L300.99954044117646,167.31295325045625L303.92003676470586,174.58498492395L306.74632352941177,175.47601713661874L309.66681985294116,175.24393149496876L312.5873161764706,174.7206443803125L315.41360294117646,179.10633879071247L318.33409926470586,180.86535369296251L321.16038602941177,180.37797237894375L324.08088235294116,179.8147845901875L327.0013786764706,186.35467008581247L329.6392463235294,191.56718590771874L332.55974264705884,195.28976300851875L335.3860294117647,192.40667055352498L338.30652573529414,195.80953531029377L341.1328125,197.73050205241873L344.0533088235294,197.53082890198124L346.97380514705884,198.285380891025L349.8000919117647,202.11621570838125L352.72058823529414,208.7601335720625L355.546875,209.37364715533124L358.4673713235294,207.57974698869373L361.38786764705884,203.94936283453126L364.0257352941176,206.92947906995624L366.9462316176471,209.3645588821875L369.7725183823529,210.87058144856252L372.6930147058824,214.62825936354375L375.51930147058823,214.73259584968125L378.4397977941176,220.12869146681248L381.3602941176471,223.50034126243125L384.1865808823529,225.66654682119378L387.1070772058824,223.8287330082L389.93336397058823,225.976572662475L392.8538602941176,225.64412166841873L395.7743566176471,227.57591502478124L398.5064338235294,232.86619899601877L401.42693014705884,231.52875254698125L404.2532169117647,233.72310017926873L407.17371323529414,234.6844063903875L410,231.15377510295002" data-legend="php" style="stroke: rgb(140, 86, 75); fill: none;"></path></g></g><g transform="translate(20, 150)"><text transform="rotate(-90)" x="-50" y="0" dy="1em" class="axis-label y-axis-label" style="text-anchor: middle; font-weight: bold;">% of Stack Overflow questions that month</text></g><g class="legend" transform="translate(530, 30)" style="font-size: 12px;"><text class="legend-title" style="font-weight: bold;">Tag</text><g class="legend-items" transform="translate(0,20)"><text y="0em" x="1em">c#</text><text y="1em" x="1em">python</text><text y="2em" x="1em">javascript</text><text y="3em" x="1em">java</text><text y="4em" x="1em">php</text><text y="5em" x="1em">c++</text><circle cy="-0.25em" cx="0" r="0.4em" style="fill: rgb(214, 39, 40);"></circle><circle cy="0.75em" cx="0" r="0.4em" style="fill: rgb(31, 119, 180);"></circle><circle cy="1.75em" cx="0" r="0.4em" style="fill: rgb(44, 160, 44);"></circle><circle cy="2.75em" cx="0" r="0.4em" style="fill: rgb(255, 127, 14);"></circle><circle cy="3.75em" cx="0" r="0.4em" style="fill: rgb(140, 86, 75);"></circle><circle cy="4.75em" cx="0" r="0.4em" style="fill: rgb(148, 103, 189);"></circle></g><rect class="legend-box"></rect></g></svg>
        