
            <svg id="trend-chart" width="660" height="400" title="Stack Overflow Trends Chart" version="1.1" xmlns="http://www.w3.org/2000/svg"><g></g><g class="chart-area" transform="translate(100, 20)"><g transform="translate(0,300)" fill="none" font-size="10" font-family="sans-serif" text-anchor="middle"><path class="domain" stroke="#000" d="M0.5,6V0.5H410.5V6"></path><g class="tick" opacity="1" transform="translate(14.4140625,0)"><line stroke="#000" y2="6" x1="0.5" x2="0.5"></line><text fill="#000" y="9" x="0.5" dy="0.71em" style="font-size: 12px;">2009</text></g><g class="tick" opacity="1" transform="translate(48.80055147058823,0)"><line stroke="#000" y2="6" x1="0.5" x2="0.5"></line><text fill="#000" y="9" x="0.5" dy="0.71em" style="font-size: 12px;">2010</text></g><g class="tick" opacity="1" transform="translate(83.18704044117646,0)"><line stroke="#000" y2="6" x1="0.5" x2="0.5"></line><text fill="#000" y="9" x="0.5" dy="0.71em" style="font-size: 12px;">2011</text></g><g class="tick" opacity="1" transform="translate(117.5735294117647,0)"><line stroke="#000" y2="6" x1="0.5" x2="0.5"></line><text fill="#000" y="9" x="0.5" dy="0.71em" style="font-size: 12px;">2012</text></g><g class="tick" opacity="1" transform="translate(152.05422794117646,0)"><line stroke="#000" y2="6" x1="0.5" x2="0.5"></line><text fill="#000" y="9" x="0.5" dy="0.71em" style="font-size: 12px;">2013</text></g><g class="tick" opacity="1" transform="translate(186.4407169117647,0)"><line stroke="#000" y2="6" x1="0.5" x2="0.5"></line><text fill="#000" y="9" x="0.5" dy="0.71em" style="font-size: 12px;">2014</text></g><g class="tick" opacity="1" transform="translate(220.82720588235293,0)"><line stroke="#000" y2="6" x1="0.5" x2="0.5"></line><text fill="#000" y="9" x="0.5" dy="0.71em" style="font-size: 12px;">2015</text></g><g class="tick" opacity="1" transform="translate(255.21369485294116,0)"><line stroke="#000" y2="6" x1="0.5" x2="0.5"></line><text fill="#000" y="9" x="0.5" dy="0.71em" style="font-size: 12px;">2016</text></g><g class="tick" opacity="1" transform="translate(289.6943933823529,0)"><line stroke="#000" y2="6" x1="0.5" x2="0.5"></line><text fill="#000" y="9" x="0.5" dy="0.71em" style="font-size: 12px;">2017</text></g><g class="tick" opacity="1" transform="translate(324.08088235294116,0)"><line stroke="#000" y2="6" x1="0.5" x2="0.5"></line><text fill="#000" y="9" x="0.5" dy="0.71em" style="font-size: 12px;">2018</text></g><g class="tick" opacity="1" transform="translate(358.4673713235294,0)"><line stroke="#000" y2="6" x1="0.5" x2="0.5"></line><text fill="#000" y="9" x="0.5" dy="0.71em" style="font-size: 12px;">2019</text></g><g class="tick" opacity="1" transform="translate(392.8538602941176,0)"><line stroke="#000" y2="6" x1="0.5" x2="0.5"></line><text fill="#000" y="9" x="0.5" dy="0.71em" style="font-size: 12px;">2020</text></g></g><g class="grid-lines" transform="translate(0,300)" fill="none" font-size="10" font-family="sans-serif" text-anchor="middle"><path class="domain" stroke="#000" d="M0.5,-300V0.5H410.5V-300"></path><g class="tick" opacity="1" transform="translate(14.4140625,0)"><line stroke="#000" y2="-300" x1="0.5" x2="0.5" style="stroke: #ccc; fill: none;"></line></g><g class="tick" opacity="1" transform="translate(48.80055147058823,0)"><line stroke="#000" y2="-300" x1="0.5" x2="0.5" style="stroke: #ccc; fill: none;"></line></g><g class="tick" opacity="1" transform="translate(83.18704044117646,0)"><line stroke="#000" y2="-300" x1="0.5" x2="0.5" style="stroke: #ccc; fill: none;"></line></g><g class="tick" opacity="1" transform="translate(117.5735294117647,0)"><line stroke="#000" y2="-300" x1="0.5" x2="0.5" style="stroke: #ccc; fill: none;"></line></g><g class="tick" opacity="1" transform="translate(152.05422794117646,0)"><line stroke="#000" y2="-300" x1="0.5" x2="0.5" style="stroke: #ccc; fill: none;"></line></g><g class="tick" opacity="1" transform="translate(186.4407169117647,0)"><line stroke="#000" y2="-300" x1="0.5" x2="0.5" style="stroke: #ccc; fill: none;"></line></g><g class="tick" opacity="1" transform="translate(220.82720588235293,0)"><line stroke="#000" y2="-300" x1="0.5" x2="0.5" style="stroke: #ccc; fill: none;"></line></g><g class="tick" opacity="1" transform="translate(255.21369485294116,0)"><line stroke="#000" y2="-300" x1="0.5" x2="0.5" style="stroke: #ccc; fill: none;"></line></g><g class="tick" opacity="1" transform="translate(289.6943933823529,0)"><line stroke="#000" y2="-300" x1="0.5" x2="0.5" style="stroke: #ccc; fill: none;"></line></g><g class="tick" opacity="1" transform="translate(324.08088235294116,0)"><line stroke="#000" y2="-300" x1="0.5" x2="0.5" style="stroke: #ccc; fill: none;"></line></g><g class="tick" opacity="1" transform="translate(358.4673713235294,0)"><line stroke="#000" y2="-300" x1="0.5" x2="0.5" style="stroke: #ccc; fill: none;"></line></g><g class="tick" opacity="1" transform="translate(392.8538602941176,0)"><line stroke="#000" y2="-300" x1="0.5" x2="0.5" style="stroke: #ccc; fill: none;"></line></g></g><text x="205" y="360" class="axis-label x-axis-label" style="text-anchor: middle; font-weight: bold;">Year</text><g fill="none" font-size="10" font-family="sans-serif" text-anchor="end"><path class="domain" stroke="#000" d="M-6,300.5H0.5V0.5H-6"></path><g class="tick" opacity="1" transform="translate(0,300)"><line stroke="#000" x2="-6" y1="0.5" y2="0.5"></line><text fill="#000" x="-9" y="0.5" dy="0.32em" style="font-size: 12px;">0.00%</text></g><g class="tick" opacity="1" transform="translate(0,280)"><line stroke="#000" x2="-6" y1="0.5" y2="0.5"></line><text fill="#000" x="-9" y="0.5" dy="0.32em" style="font-size: 12px;">0.20%</text></g><g class="tick" opacity="1" transform="translate(0,260)"><line stroke="#000" x2="-6" y1="0.5" y2="0.5"></line><text fill="#000" x="-9" y="0.5" dy="0.32em" style="font-size: 12px;">0.40%</text></g><g class="tick" opacity="1" transform="translate(0,240)"><line stroke="#000" x2="-6" y1="0.5" y2="0.5"></line><text fill="#000" x="-9" y="0.5" dy="0.32em" style="font-size: 12px;">0.60%</text></g><g class="tick" opacity="1" transform="translate(0,220)"><line stroke="#000" x2="-6" y1="0.5" y2="0.5"></line><text fill="#000" x="-9" y="0.5" dy="0.32em" style="font-size: 12px;">0.80%</text></g><g class="tick" opacity="1" transform="translate(0,200)"><line stroke="#000" x2="-6" y1="0.5" y2="0.5"></line><text fill="#000" x="-9" y="0.5" dy="0.32em" style="font-size: 12px;">1.00%</text></g><g class="tick" opacity="1" transform="translate(0,180)"><line stroke="#000" x2="-6" y1="0.5" y2="0.5"></line><text fill="#000" x="-9" y="0.5" dy="0.32em" style="font-size: 12px;">1.20%</text></g><g class="tick" opacity="1" transform="translate(0,160)"><line stroke="#000" x2="-6" y1="0.5" y2="0.5"></line><text fill="#000" x="-9" y="0.5" dy="0.32em" style="font-size: 12px;">1.40%</text></g><g class="tick" opacity="1" transform="translate(0,140)"><line stroke="#000" x2="-6" y1="0.5" y2="0.5"></line><text fill="#000" x="-9" y="0.5" dy="0.32em" style="font-size: 12px;">1.60%</text></g><g class="tick" opacity="1" transform="translate(0,120)"><line stroke="#000" x2="-6" y1="0.5" y2="0.5"></line><text fill="#000" x="-9" y="0.5" dy="0.32em" style="font-size: 12px;">1.80%</text></g><g class="tick" opacity="1" transform="translate(0,99.99999999999997)"><line stroke="#000" x2="-6" y1="0.5" y2="0.5"></line><text fill="#000" x="-9" y="0.5" dy="0.32em" style="font-size: 12px;">2.00%</text></g><g class="tick" opacity="1" transform="translate(0,80.00000000000003)"><line stroke="#000" x2="-6" y1="0.5" y2="0.5"></line><text fill="#000" x="-9" y="0.5" dy="0.32em" style="font-size: 12px;">2.20%</text></g><g class="tick" opacity="1" transform="translate(0,60)"><line stroke="#000" x2="-6" y1="0.5" y2="0.5"></line><text fill="#000" x="-9" y="0.5" dy="0.32em" style="font-size: 12px;">2.40%</text></g><g class="tick" opacity="1" transform="translate(0,40)"><line stroke="#000" x2="-6" y1="0.5" y2="0.5"></line><text fill="#000" x="-9" y="0.5" dy="0.32em" style="font-size: 12px;">2.60%</text></g><g class="tick" opacity="1" transform="translate(0,20)"><line stroke="#000" x2="-6" y1="0.5" y2="0.5"></line><text fill="#000" x="-9" y="0.5" dy="0.32em" style="font-size: 12px;">2.80%</text></g><g class="tick" opacity="1" transform="translate(0,0)"><line stroke="#000" x2="-6" y1="0.5" y2="0.5"></line><text fill="#000" x="-9" y="0.5" dy="0.32em" style="font-size: 12px;">3.00%</text></g></g><g class="grid-lines" fill="none" font-size="10" font-family="sans-serif" text-anchor="end"><path class="domain" stroke="#000" d="M410,300.5H0.5V0.5H410"></path><g class="tick" opacity="1" transform="translate(0,300)"><line stroke="#000" x2="410" y1="0.5" y2="0.5" style="stroke: #ccc; fill: none;"></line></g><g class="tick" opacity="1" transform="translate(0,280)"><line stroke="#000" x2="410" y1="0.5" y2="0.5" style="stroke: #ccc; fill: none;"></line></g><g class="tick" opacity="1" transform="translate(0,260)"><line stroke="#000" x2="410" y1="0.5" y2="0.5" style="stroke: #ccc; fill: none;"></line></g><g class="tick" opacity="1" transform="translate(0,240)"><line stroke="#000" x2="410" y1="0.5" y2="0.5" style="stroke: #ccc; fill: none;"></line></g><g class="tick" opacity="1" transform="translate(0,220)"><line stroke="#000" x2="410" y1="0.5" y2="0.5" style="stroke: #ccc; fill: none;"></line></g><g class="tick" opacity="1" transform="translate(0,200)"><line stroke="#000" x2="410" y1="0.5" y2="0.5" style="stroke: #ccc; fill: none;"></line></g><g class="tick" opacity="1" transform="translate(0,180)"><line stroke="#000" x2="410" y1="0.5" y2="0.5" style="stroke: #ccc; fill: none;"></line></g><g class="tick" opacity="1" transform="translate(0,160)"><line stroke="#000" x2="410" y1="0.5" y2="0.5" style="stroke: #ccc; fill: none;"></line></g><g class="tick" opacity="1" transform="translate(0,140)"><line stroke="#000" x2="410" y1="0.5" y2="0.5" style="stroke: #ccc; fill: none;"></line></g><g class="tick" opacity="1" transform="translate(0,120)"><line stroke="#000" x2="410" y1="0.5" y2="0.5" style="stroke: #ccc; fill: none;"></line></g><g class="tick" opacity="1" transform="translate(0,99.99999999999997)"><line stroke="#000" x2="410" y1="0.5" y2="0.5" style="stroke: #ccc; fill: none;"></line></g><g class="tick" opacity="1" transform="translate(0,80.00000000000003)"><line stroke="#000" x2="410" y1="0.5" y2="0.5" style="stroke: #ccc; fill: none;"></line></g><g class="tick" opacity="1" transform="translate(0,60)"><line stroke="#000" x2="410" y1="0.5" y2="0.5" style="stroke: #ccc; fill: none;"></line></g><g class="tick" opacity="1" transform="translate(0,40)"><line stroke="#000" x2="410" y1="0.5" y2="0.5" style="stroke: #ccc; fill: none;"></line></g><g class="tick" opacity="1" transform="translate(0,20)"><line stroke="#000" x2="410" y1="0.5" y2="0.5" style="stroke: #ccc; fill: none;"></line></g><g class="tick" opacity="1" transform="translate(0,0)"><line stroke="#000" x2="410" y1="0.5" y2="0.5" style="stroke: #ccc; fill: none;"></line></g></g><g class="lines"><path class="line" d="M2.9204963235294117,300L5.746783088235294,300L8.667279411764707,300L11.493566176470589,300L14.4140625,300L17.334558823529413,300L19.972426470588236,300L22.89292279411765,300L25.71920955882353,300L28.639705882352942,300L31.465992647058826,300L34.38648897058823,300L37.306985294117645,300L40.13327205882353,300L43.05376838235294,300L45.880055147058826,300L48.80055147058823,300L51.72104779411765,300L54.358915441176464,300L57.279411764705884,300L60.10569852941177,300L63.026194852941174,300L65.85248161764706,300L68.77297794117646,300L71.69347426470588,300L74.51976102941177,300L77.44025735294117,300L80.26654411764706,300L83.18704044117646,300L86.10753676470588,300L88.74540441176471,299.9005222582L91.66590073529412,299.790257459L94.4921875,300L97.4126838235294,299.8988775408L100.23897058823529,300L103.1594669117647,300L106.07996323529412,299.9018732399L108.90625,299.6050279937L111.82674632352942,299.8162372745L114.6530330882353,299.903550313L117.5735294117647,299.4832352916L120.49402573529412,299.6768773427L123.22610294117646,297.7534148095L126.14659926470588,297.9825568764L128.97288602941177,296.7992854219L131.8933823529412,296.1746794382L134.71966911764707,295.3408256622L137.64016544117646,293.7606352808L140.56066176470588,292.9450854555L143.38694852941177,293.1040023567L146.3074448529412,291.8647928573L149.13373161764707,290.8084147481L152.05422794117646,290.0771564693L154.97472426470588,287.8407530889L157.6125919117647,290.0305422694L160.53308823529412,288.9280615367L163.359375,286.4388879889L166.27987132352942,284.4550745335L169.1061580882353,283.646353816L172.0266544117647,283.3116894564L174.94715073529412,285.459416084L177.7734375,280.5349368064L180.69393382352942,279.8365400409L183.5202205882353,279.8957962292L186.4407169117647,276.1455176317L189.36121323529412,278.4229630693L191.99908088235293,274.636845746L194.91957720588235,274.6134318025L197.74586397058823,273.8525100459L200.66636029411765,271.59056045750003L203.49264705882354,272.6783652086L206.41314338235293,270.62703046L209.33363970588238,270.5970777464L212.15992647058823,271.8567061367L215.08042279411762,269.0473048361L217.90670955882354,273.1104978418L220.82720588235293,270.7752101474L223.74770220588238,268.0883998953L226.38556985294116,264.4207014507L229.3060661764706,262.7496565572L232.13235294117646,263.7526537272L235.05284926470586,258.7723561172L237.87913602941177,255.74948665300002L240.79963235294116,258.1800580833L243.7201286764706,254.6673441161L246.54641544117646,248.9391956308L249.46691176470586,249.5205579782L252.29319852941177,247.9078755144L255.21369485294116,249.4316606599L258.1341911764706,244.5736599523L260.8662683823529,244.4787783338L263.7867647058824,238.8991631842L266.61305147058823,232.0157515418L269.5335477941176,229.9558678327L272.35983455882354,216.3601007546L275.2803308823529,224.1291465914L278.2008272058824,222.9008977293L281.02711397058823,222.5562744344L283.9476102941176,213.7148569L286.77389705882354,212.1462739721L289.6943933823529,212.3346662566L292.6148897058824,210.1030595999L295.25275735294116,200.8792965628L298.1732536764706,196.2489574176L300.99954044117646,196.2380212381L303.92003676470586,188.2564849635L306.74632352941177,183.57180858520002L309.66681985294116,178.4880785573L312.5873161764706,177.82847564959997L315.41360294117646,171.2479364761L318.33409926470586,172.55380730619999L321.16038602941177,170.2710186564L324.08088235294116,162.52440348780002L327.0013786764706,154.29200775889998L329.6392463235294,144.46062017769998L332.55974264705884,145.9927117678L335.3860294117647,145.04697276610003L338.30652573529414,124.15028818730002L341.1328125,111.1146195138L344.0533088235294,114.80422614849999L346.97380514705884,122.98234003280001L349.8000919117647,118.73982212209998L352.72058823529414,104.13456444919998L355.546875,114.1523692346L358.4673713235294,109.60259333239998L361.38786764705884,95.95615972349998L364.0257352941176,94.34511382689996L366.9462316176471,87.5651394983L369.7725183823529,86.82209093390003L372.6930147058824,83.1758619165L375.51930147058823,65.55712514019999L378.4397977941176,58.049165171099986L381.3602941176471,91.64033469L384.1865808823529,69.78433432400001L387.1070772058824,76.728580817L389.93336397058823,65.92174410739997L392.8538602941176,57.5628436648L395.7743566176471,55.029019820900004L398.5064338235294,62.14227485310002L401.42693014705884,54.67511885900001L404.2532169117647,53.275245476199984L407.17371323529414,41.29367698300001L410,46.236078229300006" data-legend="pandas" style="stroke: rgb(31, 119, 180); fill: none;"></path><path class="line" d="M2.9204963235294117,300L5.746783088235294,300L8.667279411764707,300L11.493566176470589,300L14.4140625,300L17.334558823529413,300L19.972426470588236,300L22.89292279411765,300L25.71920955882353,300L28.639705882352942,300L31.465992647058826,300L34.38648897058823,300L37.306985294117645,300L40.13327205882353,300L43.05376838235294,300L45.880055147058826,300L48.80055147058823,300L51.72104779411765,300L54.358915441176464,300L57.279411764705884,300L60.10569852941177,300L63.026194852941174,300L65.85248161764706,300L68.77297794117646,300L71.69347426470588,300L74.51976102941177,300L77.44025735294117,300L80.26654411764706,300L83.18704044117646,299.8743892176L86.10753676470588,300L88.74540441176471,300L91.66590073529412,300L94.4921875,300L97.4126838235294,300L100.23897058823529,300L103.1594669117647,300L106.07996323529412,300L108.90625,299.9012569985L111.82674632352942,300L114.6530330882353,300L117.5735294117647,300L120.49402573529412,300L123.22610294117646,300L126.14659926470588,300L128.97288602941177,300L131.8933823529412,300L134.71966911764707,300L137.64016544117646,300L140.56066176470588,300L143.38694852941177,300L146.3074448529412,300L149.13373161764707,300L152.05422794117646,300L154.97472426470588,300L157.6125919117647,300L160.53308823529412,300L163.359375,300L166.27987132352942,300L169.1061580882353,299.943412989L172.0266544117647,300L174.94715073529412,300L177.7734375,300L180.69393382352942,300L183.5202205882353,299.9396270158L186.4407169117647,300L189.36121323529412,300L191.99908088235293,300L194.91957720588235,300L197.74586397058823,300L200.66636029411765,300L203.49264705882354,300L206.41314338235293,300L209.33363970588238,300L212.15992647058823,300L215.08042279411762,300L217.90670955882354,300L220.82720588235293,300L223.74770220588238,300L226.38556985294116,300L229.3060661764706,300L232.13235294117646,300L235.05284926470586,300L237.87913602941177,300L240.79963235294116,300L243.7201286764706,300L246.54641544117646,300L249.46691176470586,288.7886060689L252.29319852941177,289.3487611387L255.21369485294116,290.5738841143L258.1341911764706,287.7837999318L260.8662683823529,287.9388369451L263.7867647058824,286.1552451697L266.61305147058823,282.380350907L269.5335477941176,272.99700512239997L272.35983455882354,272.4801419206L275.2803308823529,272.0330065903L278.2008272058824,273.9482485478L281.02711397058823,267.736565035L283.9476102941176,260.3616852603L286.77389705882354,258.7410114347L289.6943933823529,255.740114153L292.6148897058824,244.9352500618L295.25275735294116,243.8449240608L298.1732536764706,241.3899596493L300.99954044117646,241.0774410775L303.92003676470586,232.29890119819999L306.74632352941177,227.7573992664L309.66681985294116,230.0540620267L312.5873161764706,238.4796846386L315.41360294117646,229.8845609946L318.33409926470586,231.1552342271L321.16038602941177,230.3589353086L324.08088235294116,228.37458647469998L327.0013786764706,230.7624026039L329.6392463235294,220.92007570250001L332.55974264705884,213.48322962889998L335.3860294117647,213.26717676549998L338.30652573529414,221.2788595226L341.1328125,217.7139248501L344.0533088235294,219.3143626788L346.97380514705884,229.081472709L349.8000919117647,232.2309908556L352.72058823529414,227.7155290915L355.546875,228.5318265018L358.4673713235294,229.24829678060001L361.38786764705884,230.17928423479998L364.0257352941176,219.66995506759997L366.9462316176471,216.6345191937L369.7725183823529,224.40969942910002L372.6930147058824,224.23684094159998L375.51930147058823,224.12937798029998L378.4397977941176,218.3526404525L381.3602941176471,223.0895624258L384.1865808823529,217.58751060359998L387.1070772058824,212.8935929808L389.93336397058823,207.5133981997L392.8538602941176,217.6092476517L395.7743566176471,210.726410694L398.5064338235294,212.31175183429997L401.42693014705884,217.59112519810003L404.2532169117647,211.26292038639997L407.17371323529414,207.98214882769997L410,208.3630282495" data-legend="tensorflow" style="stroke: rgb(255, 127, 14); fill: none;"></path><path class="line" d="M2.9204963235294117,297.8432782172L5.746783088235294,298.6153420106L8.667279411764707,297.6120353419L11.493566176470589,296.6580332526L14.4140625,295.5510359731L17.334558823529413,295.9834748681L19.972426470588236,298.0272243046L22.89292279411765,296.6887417219L25.71920955882353,297.2613458529L28.639705882352942,295.3606223904L31.465992647058826,298.1324701196L34.38648897058823,297.2255618238L37.306985294117645,297.5555351851L40.13327205882353,292.5064527768L43.05376838235294,289.7755872484L45.880055147058826,293.0585219992L48.80055147058823,295.2935903183L51.72104779411765,291.0094176351L54.358915441176464,292.4846803099L57.279411764705884,291.5521853692L60.10569852941177,293.9977152594L63.026194852941174,292.2382671481L65.85248161764706,294.0461423965L68.77297794117646,292.2615287429L71.69347426470588,293.0969873281L74.51976102941177,291.9626816277L77.44025735294117,290.4750909196L80.26654411764706,290.7511777798L83.18704044117646,293.5938500961L86.10753676470588,292.4895823239L88.74540441176471,288.4605819448L91.66590073529412,289.408001678L94.4921875,290.7057624273L97.4126838235294,291.505713419L100.23897058823529,290.5419935487L103.1594669117647,288.4148962013L106.07996323529412,288.2247887822L108.90625,286.2747227791L111.82674632352942,290.1686941821L114.6530330882353,289.5834338018L117.5735294117647,287.5976469981L120.49402573529412,287.882900349L123.22610294117646,287.4940091062L126.14659926470588,287.817747292L128.97288602941177,287.2715769102L131.8933823529412,286.4583652111L134.71966911764707,285.6695092337L137.64016544117646,284.2597844584L140.56066176470588,282.5523618792L143.38694852941177,283.4629959428L146.3074448529412,281.0856433932L149.13373161764707,284.5077313093L152.05422794117646,283.7799673056L154.97472426470588,281.4996404524L157.6125919117647,281.0983691581L160.53308823529412,277.5647562717L163.359375,278.2182138936L166.27987132352942,281.2955368371L169.1061580882353,276.5729774388L172.0266544117647,280.1973216437L174.94715073529412,276.2282570003L177.7734375,275.4924552548L180.69393382352942,272.4168398875L183.5202205882353,275.7300603127L186.4407169117647,274.241390436L189.36121323529412,270.5042968065L191.99908088235293,272.8114672201L194.91957720588235,274.0492858426L197.74586397058823,271.1924840116L200.66636029411765,273.3086259158L203.49264705882354,272.8473650115L206.41314338235293,271.3598280369L209.33363970588238,274.3250556191L212.15992647058823,269.8340874812L215.08042279411762,272.4065120632L217.90670955882354,272.9175109842L220.82720588235293,270.1726371607L223.74770220588238,267.0762782502L226.38556985294116,265.84598492370003L229.3060661764706,268.508929515L232.13235294117646,266.1295288926L235.05284926470586,267.95778972840003L237.87913602941177,266.6324435319L240.79963235294116,269.0222652469L243.7201286764706,269.9099556836L246.54641544117646,267.5753119934L249.46691176470586,262.3657731355L252.29319852941177,266.0091612295L255.21369485294116,261.9628500139L258.1341911764706,259.88391942650003L260.8662683823529,259.7795099779L263.7867647058824,258.1081219156L266.61305147058823,263.38084977660003L269.5335477941176,257.9407897967L272.35983455882354,255.0812233828L275.2803308823529,258.0218197929L278.2008272058824,255.1722114652L281.02711397058823,254.36044342140002L283.9476102941176,251.9744476488L286.77389705882354,253.7775240885L289.6943933823529,254.4299759619L292.6148897058824,246.4297004777L295.25275735294116,245.54356514789998L298.1732536764706,242.1225851537L300.99954044117646,247.9841146508L303.92003676470586,245.9633431582L306.74632352941177,243.0459496542L309.66681985294116,244.4063104511L312.5873161764706,243.3218487135L315.41360294117646,234.913938476L318.33409926470586,235.8004692879L321.16038602941177,235.8969921429L324.08088235294116,237.0374322823L327.0013786764706,233.4582634711L329.6392463235294,238.3898675208L332.55974264705884,240.0084285679L335.3860294117647,242.2983296569L338.30652573529414,239.1640937605L341.1328125,234.1332491317L344.0533088235294,237.86570606290002L346.97380514705884,237.301891393L349.8000919117647,236.8658399099L352.72058823529414,231.53762078149998L355.546875,230.4305558721L358.4673713235294,238.0586324476L361.38786764705884,226.13270051170002L364.0257352941176,224.2816100908L366.9462316176471,225.3306830739L369.7725183823529,232.4991877359L372.6930147058824,233.228188612L375.51930147058823,228.5728497245L378.4397977941176,227.2583890793L381.3602941176471,235.5393210142L384.1865808823529,226.46356603959998L387.1070772058824,225.28795268239998L389.93336397058823,226.3749414642L392.8538602941176,233.4126462703L395.7743566176471,222.8893468031L398.5064338235294,227.1678036642L401.42693014705884,223.74915100750002L404.2532169117647,221.2514157801L407.17371323529414,221.35599133609998L410,221.6345896755" data-legend="numpy" style="stroke: rgb(44, 160, 44); fill: none;"></path><path class="line" d="M2.9204963235294117,300L5.746783088235294,300L8.667279411764707,300L11.493566176470589,300L14.4140625,300L17.334558823529413,300L19.972426470588236,300L22.89292279411765,300L25.71920955882353,300L28.639705882352942,300L31.465992647058826,300L34.38648897058823,300L37.306985294117645,300L40.13327205882353,300L43.05376838235294,300L45.880055147058826,300L48.80055147058823,300L51.72104779411765,300L54.358915441176464,300L57.279411764705884,300L60.10569852941177,300L63.026194852941174,300L65.85248161764706,300L68.77297794117646,300L71.69347426470588,300L74.51976102941177,300L77.44025735294117,300L80.26654411764706,300L83.18704044117646,300L86.10753676470588,300L88.74540441176471,300L91.66590073529412,300L94.4921875,300L97.4126838235294,300L100.23897058823529,300L103.1594669117647,300L106.07996323529412,300L108.90625,300L111.82674632352942,300L114.6530330882353,300L117.5735294117647,300L120.49402573529412,300L123.22610294117646,300L126.14659926470588,300L128.97288602941177,300L131.8933823529412,300L134.71966911764707,300L137.64016544117646,300L140.56066176470588,300L143.38694852941177,300L146.3074448529412,300L149.13373161764707,300L152.05422794117646,300L154.97472426470588,300L157.6125919117647,300L160.53308823529412,300L163.359375,300L166.27987132352942,300L169.1061580882353,300L172.0266544117647,300L174.94715073529412,300L177.7734375,300L180.69393382352942,300L183.5202205882353,300L186.4407169117647,300L189.36121323529412,300L191.99908088235293,300L194.91957720588235,299.9487140037L197.74586397058823,300L200.66636029411765,300L203.49264705882354,299.9436667324L206.41314338235293,299.9389335353L209.33363970588238,300L212.15992647058823,299.8266326867L215.08042279411762,299.7000707833L217.90670955882354,299.9356710475L220.82720588235293,299.3371697147L223.74770220588238,298.8092686529L226.38556985294116,298.4691399734L229.3060661764706,297.0939448378L232.13235294117646,297.2990054939L235.05284926470586,295.1402647755L237.87913602941177,293.3778234087L240.79963235294116,294.3023095008L243.7201286764706,294.4674965422L246.54641544117646,293.267299002L249.46691176470586,292.9013284657L252.29319852941177,290.978458888L255.21369485294116,293.9007485445L258.1341911764706,290.2377091158L260.8662683823529,289.0353063137L263.7867647058824,289.1694168855L266.61305147058823,289.5980384873L269.5335477941176,286.6894328281L272.35983455882354,285.5009012185L275.2803308823529,285.379631168L278.2008272058824,286.9741242739L281.02711397058823,286.4516536446L283.9476102941176,285.2936107633L286.77389705882354,284.3029712677L289.6943933823529,286.3859553186L292.6148897058824,284.7681015307L295.25275735294116,286.0111910472L298.1732536764706,285.5165573364L300.99954044117646,285.5391522059L303.92003676470586,284.52868968170003L306.74632352941177,283.8714193711L309.66681985294116,281.3931324775L312.5873161764706,278.2102616631L315.41360294117646,279.3499677529L318.33409926470586,282.9674714438L321.16038602941177,279.7860925548L324.08088235294116,277.4012718063L327.0013786764706,277.3810697965L329.6392463235294,276.6487116029L332.55974264705884,278.6187064628L335.3860294117647,272.7119184003L338.30652573529414,277.2844470265L341.1328125,278.8443321756L344.0533088235294,278.0179287299L346.97380514705884,275.2690793828L349.8000919117647,275.8862582989L352.72058823529414,275.32403961570003L355.546875,272.4304495432L358.4673713235294,279.2856230118L361.38786764705884,276.7492901332L364.0257352941176,276.7547658962L366.9462316176471,273.1268920695L369.7725183823529,272.6150928634L372.6930147058824,272.9522574179L375.51930147058823,267.7019292626L378.4397977941176,269.4757165389L381.3602941176471,270.8031042241L384.1865808823529,265.9002174072L387.1070772058824,264.6616628043L389.93336397058823,269.2361725376L392.8538602941176,268.2156364864L395.7743566176471,270.9506574481L398.5064338235294,271.735959154L401.42693014705884,270.3871405932L404.2532169117647,267.1360664949L407.17371323529414,263.1250211995L410,264.5605557528" data-legend="pyspark" style="stroke: rgb(214, 39, 40); fill: none;"></path><path class="line" d="M2.9204963235294117,298.5621854781L5.746783088235294,300L8.667279411764707,300L11.493566176470589,298.3290166263L14.4140625,299.3644337105L17.334558823529413,298.2786320863L19.972426470588236,298.5204182285L22.89292279411765,296.6887417219L25.71920955882353,297.2613458529L28.639705882352942,299.2862495986L31.465992647058826,298.1324701196L34.38648897058823,295.9924781899L37.306985294117645,296.6388608794L40.13327205882353,297.2246121396L43.05376838235294,296.8540268457L45.880055147058826,297.0632208458L48.80055147058823,296.414164052L51.72104779411765,294.3808860219L54.358915441176464,293.6408833392L57.279411764705884,295.5749542411L60.10569852941177,296.3211803203L63.026194852941174,294.9458483755L65.85248161764706,295.3692218639L68.77297794117646,294.4725205307L71.69347426470588,295.2336341075L74.51976102941177,294.4841932739L77.44025735294117,294.5159614386L80.26654411764706,296.6762045146L83.18704044117646,294.9755687029L86.10753676470588,293.0952611688L88.74540441176471,292.6386471028L91.66590073529412,293.9174663102L94.4921875,293.4040894646L97.4126838235294,293.6292850643L100.23897058823529,294.2256381666L103.1594669117647,293.0863090234L106.07996323529412,294.014267631L108.90625,291.8043308681L111.82674632352942,292.3738468889L114.6530330882353,290.9337294201L117.5735294117647,292.4207842766L120.49402573529412,290.3871009436L123.22610294117646,292.2118380063L126.14659926470588,291.4646637078L128.97288602941177,290.8444676021L131.8933823529412,290.4366985954L134.71966911764707,289.4109674141L137.64016544117646,288.3720930233L140.56066176470588,291.2761809396L143.38694852941177,288.2165477163L146.3074448529412,288.271743036L149.13373161764707,288.2881413726L152.05422794117646,286.8967579018L154.97472426470588,285.5527227561L157.6125919117647,286.8034345647L160.53308823529412,286.2474869614L163.359375,285.5988191032L166.27987132352942,286.9827046907L169.1061580882353,284.9478550694L172.0266544117647,286.1910106418L174.94715073529412,283.5287161449L177.7734375,283.1917281615L180.69393382352942,282.0454584072L183.5202205882353,285.0878728787L186.4407169117647,282.1752537514L189.36121323529412,280.8145065715L191.99908088235293,280.6894166475L194.91957720588235,282.1011872709L197.74586397058823,282.1155696418L200.66636029411765,283.0647833397L203.49264705882354,278.4806917726L206.41314338235293,280.03126603L209.33363970588238,283.8855150022L212.15992647058823,284.6858873229L215.08042279411762,279.7847707941L217.90670955882354,281.9878932912L220.82720588235293,282.5253833871L223.74770220588238,281.0078350123L226.38556985294116,280.0988196542L229.3060661764706,280.9785480292L232.13235294117646,278.7701831815L235.05284926470586,279.9202148965L237.87913602941177,273.5626283368L240.79963235294116,279.1453464252L243.7201286764706,279.5071555594L246.54641544117646,279.371004142L249.46691176470586,271.9433458406L252.29319852941177,277.8826734028L255.21369485294116,274.1613529249L258.1341911764706,275.0341413452L260.8662683823529,273.5850561193L263.7867647058824,272.97462987L266.61305147058823,274.3665948436L269.5335477941176,272.9424536176L272.35983455882354,271.7978313897L275.2803308823529,273.5282715845L278.2008272058824,275.0630757496L281.02711397058823,274.0514722346L283.9476102941176,273.6893505062L286.77389705882354,276.1752607382L289.6943933823529,274.879524249L292.6148897058824,269.0763721642L295.25275735294116,266.976418865L298.1732536764706,261.3399156918L300.99954044117646,266.5457998792L303.92003676470586,264.4272791951L306.74632352941177,264.6627278583L309.66681985294116,269.7071120213L312.5873161764706,270.5745413912L315.41360294117646,266.5102628886L318.33409926470586,262.778565218L321.16038602941177,263.8641791562L324.08088235294116,263.904809135L327.0013786764706,265.54558306219997L329.6392463235294,265.3515795604L332.55974264705884,264.6124098268L335.3860294117647,265.7396332338L338.30652573529414,260.0519585637L341.1328125,258.446479318L344.0533088235294,260.2289693204L346.97380514705884,258.4799191892L349.8000919117647,259.1632218465L352.72058823529414,253.4643573187L355.546875,253.7469525394L358.4673713235294,260.9251524996L361.38786764705884,257.40799166L364.0257352941176,254.631285717L366.9462316176471,254.42687049260002L369.7725183823529,252.855523065L372.6930147058824,257.1805492093L375.51930147058823,256.2284872964L378.4397977941176,250.984391146L381.3602941176471,258.8589195885L384.1865808823529,251.35022780010001L387.1070772058824,250.0766720856L389.93336397058823,254.6022165566L392.8538602941176,252.9449366977L395.7743566176471,249.5769541883L398.5064338235294,242.6138070108L401.42693014705884,240.4573239756L404.2532169117647,237.6164952867L407.17371323529414,240.05998846749998L410,240.982873366" data-legend="matplotlib" style="stroke: rgb(148, 103, 189); fill: none;"></path><path class="line" d="M2.9204963235294117,300L5.746783088235294,300L8.667279411764707,300L11.493566176470589,300L14.4140625,300L17.334558823529413,300L19.972426470588236,300L22.89292279411765,300L25.71920955882353,300L28.639705882352942,300L31.465992647058826,300L34.38648897058823,300L37.306985294117645,300L40.13327205882353,300L43.05376838235294,300L45.880055147058826,300L48.80055147058823,300L51.72104779411765,300L54.358915441176464,300L57.279411764705884,300L60.10569852941177,300L63.026194852941174,300L65.85248161764706,300L68.77297794117646,300L71.69347426470588,300L74.51976102941177,300L77.44025735294117,300L80.26654411764706,300L83.18704044117646,299.8743892176L86.10753676470588,300L88.74540441176471,300L91.66590073529412,299.8951287295L94.4921875,300L97.4126838235294,300L100.23897058823529,299.9004420374L103.1594669117647,300L106.07996323529412,299.9018732399L108.90625,300L111.82674632352942,299.6324745489L114.6530330882353,299.807100626L117.5735294117647,299.9138725486L120.49402573529412,299.5960966783L123.22610294117646,299.625569135L126.14659926470588,299.456842236L128.97288602941177,299.5533886636L131.8933823529412,298.8524038315L134.71966911764707,299.3646580449L137.64016544117646,298.5110606921L140.56066176470588,298.3310954841L143.38694852941177,298.7279227649L146.3074448529412,298.5763387501L149.13373161764707,298.8139889998L152.05422794117646,297.5192891174L154.97472426470588,297.6465973721L157.6125919117647,297.867803838L160.53308823529412,297.4359721454L163.359375,297.1797687411L166.27987132352942,297.409179089L169.1061580882353,297.1706494492L172.0266544117647,297.4732487558L174.94715073529412,297.6469594493L177.7734375,296.909446791L180.69393382352942,295.8653579298L183.5202205882353,294.506058429L186.4407169117647,294.76365021189997L189.36121323529412,296.1203849854L191.99908088235293,295.2444085774L194.91957720588235,294.3072544042L197.74586397058823,295.3025072161L200.66636029411765,294.4776467412L203.49264705882354,294.2540067037L206.41314338235293,294.4429517087L209.33363970588238,295.9713787506L212.15992647058823,294.8567697047L215.08042279411762,294.8412174727L217.90670955882354,293.5671047469L220.82720588235293,293.4319544455L223.74770220588238,294.0463432641L226.38556985294116,293.559830233L229.3060661764706,292.1272323788L232.13235294117646,291.24877779999997L235.05284926470586,292.1496584835L237.87913602941177,291.7351129364L240.79963235294116,291.370488176L243.7201286764706,292.9996895024L246.54641544117646,292.0284820184L249.46691176470586,289.8590406653L252.29319852941177,289.8725925582L255.21369485294116,289.9085112282L258.1341911764706,289.7042505975L260.8662683823529,289.7330595483L263.7867647058824,289.1694168855L266.61305147058823,288.2181864499L269.5335477941176,288.0532204481L272.35983455882354,287.3203959676L275.2803308823529,287.5394583818L278.2008272058824,289.2624537934L281.02711397058823,287.4850020955L283.9476102941176,285.4659512622L286.77389705882354,286.4124533898L289.6943933823529,286.72773049890003L292.6148897058824,286.6649039816L295.25275735294116,285.9112709833L298.1732536764706,284.614864408L300.99954044117646,286.7262367263L303.92003676470586,284.9804067713L306.74632352941177,281.2953266318L309.66681985294116,283.2651648807L312.5873161764706,284.4802433498L315.41360294117646,283.6693154722L318.33409926470586,283.5034601046L321.16038602941177,282.2782181303L324.08088235294116,285.0597296942L327.0013786764706,280.208436072L329.6392463235294,279.618576212L332.55974264705884,279.4243783932L335.3860294117647,282.7496048037L338.30652573529414,280.548175902L341.1328125,280.2968108621L344.0533088235294,279.5426966792L346.97380514705884,282.4445295901L349.8000919117647,280.1453087812L352.72058823529414,281.2248127511L355.546875,278.1266376541L358.4673713235294,280.294440073L361.38786764705884,278.0524272644L364.0257352941176,280.1823473325L366.9462316176471,277.3115122826L369.7725183823529,276.6598370168L372.6930147058824,278.6271243902L375.51930147058823,278.1142436482L378.4397977941176,277.5656713983L381.3602941176471,279.5242549104L384.1865808823529,276.6301325229L387.1070772058824,276.2489479207L389.93336397058823,270.6670482336L392.8538602941176,276.2653076928L395.7743566176471,276.5007350901L398.5064338235294,275.3293002103L401.42693014705884,278.89970568260003L404.2532169117647,275.7422254725L407.17371323529414,275.1420970767L410,274.2833113762" data-legend="scikit-learn" style="stroke: rgb(140, 86, 75); fill: none;"></path></g></g><g transform="translate(20, 150)"><text transform="rotate(-90)" x="-50" y="0" dy="1em" class="axis-label y-axis-label" style="text-anchor: middle; font-weight: bold;">% of Stack Overflow questions that month</text></g><g class="legend" transform="translate(530, 30)" style="font-size: 12px;"><text class="legend-title" style="font-weight: bold;">Tag</text><g class="legend-items" transform="translate(0,20)"><text y="0em" x="1em">pandas</text><text y="1em" x="1em">tensorflow</text><text y="2em" x="1em">numpy</text><text y="3em" x="1em">matplotlib</text><text y="4em" x="1em">pyspark</text><text y="5em" x="1em">scikit-learn</text><circle cy="-0.25em" cx="0" r="0.4em" style="fill: rgb(31, 119, 180);"></circle><circle cy="0.75em" cx="0" r="0.4em" style="fill: rgb(255, 127, 14);"></circle><circle cy="1.75em" cx="0" r="0.4em" style="fill: rgb(44, 160, 44);"></circle><circle cy="2.75em" cx="0" r="0.4em" style="fill: rgb(148, 103, 189);"></circle><circle cy="3.75em" cx="0" r="0.4em" style="fill: rgb(214, 39, 40);"></circle><circle cy="4.75em" cx="0" r="0.4em" style="fill: rgb(140, 86, 75);"></circle></g><rect class="legend-box"></rect></g></svg>
        